<svg xmlns="http://www.w3.org/2000/svg" width="394" height="47" fill="none" viewBox="0 0 394 47">
  <path stroke="#313131" stroke-width="2" d="M0 21.5c47 0 67.396-9.311 117.5 0 56.5 10.5 54 19 83 19 73 0 74-26 113-26S384 25 394 25"/>
  <path stroke="#313131" stroke-width="2" d="M0 21.5c47 0 66.896-11.311 117-2C173.5 30 178 41 207 41c73 0 67.5-28 106.5-28S384 25 394 25"/>
  <circle cx="130" cy="22.5" r="5.5" fill="#FFFEFE" stroke="#313131" stroke-width="2"/>
  <circle cx="308" cy="12.5" r="5.5" fill="#FFFEFE" stroke="#313131" stroke-width="2"/>
  <path stroke="#fff" stroke-linecap="round" stroke-width="2" d="m47 24 4-5m-4-5 4 5m-12 0h11.5"/>
  <path stroke="#313131" stroke-width="2" d="M0 21.5c47 0 67.396-9.311 117.5 0 56.5 10.5 54 19 83 19 73 0 74-26 113-26S384 25 394 25"/>
  <path stroke="#313131" stroke-width="2" d="M0 21.5c47 0 66.896-11.311 117-2C173.5 30 178 41 207 41c73 0 67.5-28 106.5-28S384 25 394 25"/>
  <circle cx="130" cy="22.5" r="5.5" fill="#FFFEFE" stroke="#313131" stroke-width="2"/>
  <circle cx="45.5" cy="18.5" r="5.5" fill="#FFFEFE" stroke="#313131" stroke-width="2"/>
  <circle cx="308" cy="12.5" r="5.5" fill="#FFFEFE" stroke="#313131" stroke-width="2"/>
  <circle cx="207" cy="40.5" r="5.5" fill="#FFFEFE" stroke="#313131" stroke-width="2"/>
  <circle cx="308.5" cy="12.5" r="12.5" fill="#313131"/>
  <path fill="#F6F6F6" d="M303.95 8.75c0-.73.274-1.429.762-1.945A2.527 2.527 0 0 1 306.55 6c.69 0 1.351.29 1.838.805.488.516.762 1.216.762 1.945 0 .73-.274 1.429-.762 1.944a2.527 2.527 0 0 1-1.838.806c-.69 0-1.351-.29-1.838-.806a2.831 2.831 0 0 1-.762-1.944ZM302 16.362c0-2.116 1.621-3.83 3.622-3.83h1.856c2.001 0 3.622 1.714 3.622 3.83 0 .352-.27.638-.603.638h-7.894c-.333 0-.603-.286-.603-.638Zm12.376.638h-2.801c.11-.202.175-.436.175-.688v-.171a4.39 4.39 0 0 0-1.418-3.262 3.19 3.19 0 0 1 .144-.004h1.248c1.809 0 3.276 1.551 3.276 3.465 0 .366-.28.66-.624.66Zm-3.601-5.5c-.63 0-1.198-.27-1.611-.707.4-.571.636-1.278.636-2.043 0-.576-.134-1.12-.372-1.596a2.193 2.193 0 0 1 1.347-.466c1.257 0 2.275 1.076 2.275 2.406s-1.018 2.406-2.275 2.406Z"/>
</svg>
